HIERARCHY
ROOT Hips
{
	OFFSET 0.00000 0.00000 0.00000
	CHANNELS 6 Xposition Yposition Zposition Zrotation Yrotation Xrotation 
	JOINT LHipJoint
	{
		OFFSET 0 0 0
		CHANNELS 3 Zrotation Yrotation Xrotation
		JOINT LeftUpLeg
		{
			OFFSET 1.58895 -1.83665 0.71753
			CHANNELS 3 Zrotation Yrotation Xrotation
			JOINT LeftLeg
			{
				OFFSET 2.50528 -6.88321 0.00000
				CHANNELS 3 Zrotation Yrotation Xrotation
				JOINT LeftFoot
				{
					OFFSET 2.63244 -7.23257 0.00000
					CHANNELS 3 Zrotation Yrotation Xrotation
					JOINT LeftToeBase
					{
						OFFSET 0.23691 -0.65090 1.72750
						CHANNELS 3 Zrotation Yrotation Xrotation
						End Site
						{
							OFFSET 0.00000 -0.00000 0.92561
						}
					}
				}
			}
		}
	}
	JOINT RHipJoint
	{
		OFFSET 0 0 0
		CHANNELS 3 Zrotation Yrotation Xrotation
		JOINT RightUpLeg
		{
			OFFSET -1.51435 -1.83665 0.71753
			CHANNELS 3 Zrotation Yrotation Xrotation
			JOINT RightLeg
			{
				OFFSET -2.54551 -6.99375 0.00000
				CHANNELS 3 Zrotation Yrotation Xrotation
				JOINT RightFoot
				{
					OFFSET -2.66027 -7.30903 0.00000
					CHANNELS 3 Zrotation Yrotation Xrotation
					JOINT RightToeBase
					{
						OFFSET -0.22981 -0.63138 2.03959
						CHANNELS 3 Zrotation Yrotation Xrotation
						End Site
						{
							OFFSET -0.00000 -0.00000 1.07060
						}
					}
				}
			}
		}
	}
	JOINT LowerBack
	{
		OFFSET 0 0 0
		CHANNELS 3 Zrotation Yrotation Xrotation
		JOINT Spine
		{
			OFFSET -0.02651 1.86275 -0.11152
			CHANNELS 3 Zrotation Yrotation Xrotation
			JOINT Spine1
			{
				OFFSET 0.01019 1.86224 0.04087
				CHANNELS 3 Zrotation Yrotation Xrotation
				JOINT Neck
				{
					OFFSET 0 0 0
					CHANNELS 3 Zrotation Yrotation Xrotation
					JOINT Neck1
					{
						OFFSET -0.01926 1.80512 0.08867
						CHANNELS 3 Zrotation Yrotation Xrotation
						JOINT Head
						{
							OFFSET 0.05516 1.76451 -0.38475
							CHANNELS 3 Zrotation Yrotation Xrotation
							End Site
							{
								OFFSET 0.01592 1.82587 -0.14001
							}
						}
					}
				}
				JOINT LeftShoulder
				{
					OFFSET 0 0 0
					CHANNELS 3 Zrotation Yrotation Xrotation
					JOINT LeftArm
					{
						OFFSET 3.47116 1.51376 0.14491
						CHANNELS 3 Zrotation Yrotation Xrotation
						JOINT LeftForeArm
						{
							OFFSET 4.78095 -0.00000 0.00000
							CHANNELS 3 Zrotation Yrotation Xrotation
							JOINT LeftHand
							{
								OFFSET 3.58615 -0.00000 -0.00000
								CHANNELS 3 Zrotation Yrotation Xrotation
								JOINT LeftFingerBase
								{
									OFFSET 0 0 0
									CHANNELS 3 Zrotation Yrotation Xrotation
									JOINT LeftHandIndex1
									{
										OFFSET 0.65981 -0.00000 0.00000
										CHANNELS 3 Zrotation Yrotation Xrotation
										End Site
										{
											OFFSET 0.53196 -0.00000 0.00000
										}
									}
								}
								JOINT LThumb
								{
									OFFSET 0 0 0
									CHANNELS 3 Zrotation Yrotation Xrotation
									End Site
									{
										OFFSET 0.54008 -0.00000 0.54008
									}
								}
							}
						}
					}
				}
				JOINT RightShoulder
				{
					OFFSET 0 0 0
					CHANNELS 3 Zrotation Yrotation Xrotation
					JOINT RightArm
					{
						OFFSET -3.31725 1.61216 0.35156
						CHANNELS 3 Zrotation Yrotation Xrotation
						JOINT RightForeArm
						{
							OFFSET -4.48913 -0.00000 0.00000
							CHANNELS 3 Zrotation Yrotation Xrotation
							JOINT RightHand
							{
								OFFSET -3.70510 -0.00000 0.00000
								CHANNELS 3 Zrotation Yrotation Xrotation
								JOINT RightFingerBase
								{
									OFFSET 0 0 0
									CHANNELS 3 Zrotation Yrotation Xrotation
									JOINT RightHandIndex1
									{
										OFFSET -0.44914 -0.00000 0.00000
										CHANNELS 3 Zrotation Yrotation Xrotation
										End Site
										{
											OFFSET -0.36211 -0.00000 0.00000
										}
									}
								}
								JOINT RThumb
								{
									OFFSET 0 0 0
									CHANNELS 3 Zrotation Yrotation Xrotation
									End Site
									{
										OFFSET -0.36763 -0.00000 0.36763
									}
								}
							}
						}
					}
				}
			}
		}
	}
}
MOTION
Frames: 15
Frame Time: .0083333
-0.5420 18.6529 7.1208 -3.8335 3.8398 -1.4056 0.0000 0.0000 0.0000 -11.6599 -6.6713 1.2096 1.7472 8.3184 23.6855 1.4637 1.0842 -23.2839 8.8379 -16.7023 -55.5280 0.0000 0.0000 0.0000 17.0743 -6.4044 13.9252 0.0000 -0.0000 0.0000 -0.9139 -6.0795 -21.2470 -0.3078 3.5668 -9.8609 -3.2037 -1.1611 7.9231 0.4514 -1.9011 -4.4221 2.5761 -0.7120 -9.0328 -3.7192 -5.6751 -40.0265 7.0867 -7.0527 10.9097 1.9154 -2.4157 9.9531 0.0000 0.0000 0.0000 -73.2899 -55.2432 47.4922 69.0703 -58.2783 -41.9791 -0.0000 -0.0000 2.8931 10.0548 -13.3936 -2.3520 -7.1250 0.0000 -0.0000 -11.8752 16.5667 8.1754 0.0000 0.0000 0.0000 64.2190 11.1023 60.0666 -104.4709 59.1938 -72.4982 0.0000 -0.0000 -4.9406 29.6057 -44.8125 -21.8245 7.1250 -0.0000 -0.0000 76.5255 -59.0498 -39.1110
-0.5551 18.6804 7.1060 -3.7370 4.2693 -1.0516 0.0000 0.0000 0.0000 -11.6186 -6.9239 0.7006 1.7432 8.3093 23.6577 1.3847 1.0916 -22.6605 8.8425 -16.7053 -55.5437 0.0000 0.0000 0.0000 17.0461 -6.6821 13.4239 0.0000 -0.0000 0.0000 -0.8658 -6.3333 -20.9783 -0.3217 3.6458 -10.0822 -3.2210 -1.5091 8.5672 0.3194 -2.4050 -4.3958 2.5460 -0.9521 -9.3553 -3.6337 -5.4998 -39.3699 7.1365 -6.8807 10.5629 1.9552 -2.3517 9.7291 0.0000 0.0000 0.0000 -73.3597 -53.6308 47.9694 67.3419 -57.9684 -40.5113 -0.0000 -0.0000 2.2552 9.2724 -12.3918 -2.0066 -7.1250 0.0000 -0.0000 -12.4494 17.6011 8.3011 0.0000 0.0000 0.0000 63.7045 11.2231 59.5043 -109.0125 58.5891 -76.3873 0.0000 -0.0000 -6.0803 29.3490 -44.3668 -21.4641 7.1250 -0.0000 -0.0000 75.6926 -58.9291 -38.1446
-0.5689 18.7100 7.0828 -3.6930 4.6966 -0.7465 0.0000 0.0000 0.0000 -11.5196 -7.1438 0.1944 1.7421 8.3069 23.6503 1.3098 1.0447 -22.0313 8.8576 -16.7152 -55.5964 0.0000 0.0000 0.0000 17.0932 -6.9690 12.9459 0.0000 0.0000 -0.0000 -0.8298 -6.5951 -20.8274 -0.3248 3.6631 -10.1307 -3.1213 -1.8145 9.3809 0.1597 -2.8456 -4.3487 2.4253 -1.1667 -9.7683 -3.5360 -5.3573 -38.6199 7.1757 -6.7530 10.1751 1.9803 -2.3117 9.4799 0.0000 -0.0000 0.0000 -73.4087 -51.6924 48.7159 65.8999 -57.6874 -39.2907 -0.0000 -0.0000 1.6012 8.2406 -11.3693 -1.6353 -7.1250 0.0000 -0.0000 -13.2129 18.6568 8.5208 0.0000 -0.0000 0.0000 63.3167 11.4850 58.7058 -113.0611 57.8919 -79.8301 0.0000 -0.0000 -6.3360 30.6883 -44.0733 -22.4314 7.1250 -0.0000 -0.0000 76.2378 -58.4562 -37.8108
-0.5832 18.7401 7.0491 -3.6903 5.0324 -0.4626 0.0000 0.0000 0.0000 -11.3790 -7.3339 -0.3774 1.7508 8.3266 23.7105 1.2174 1.0516 -21.2563 8.8354 -16.7006 -55.5191 0.0000 0.0000 0.0000 17.1942 -7.1562 12.4571 0.0000 -0.0000 0.0000 -0.7990 -6.8802 -20.7459 -0.3078 3.5668 -9.8609 -2.9461 -2.0680 10.4423 0.0081 -3.2141 -4.3235 2.2797 -1.3448 -10.3654 -3.3239 -5.1935 -37.9419 7.0491 -6.6236 9.9376 1.9268 -2.2824 9.2837 0.0000 0.0000 0.0000 -73.2971 -49.4772 49.6298 64.6556 -57.4280 -38.2406 -0.0000 -0.0000 1.0561 7.1687 -10.2754 -1.2853 -7.1250 0.0000 -0.0000 -14.0278 19.7696 8.7189 0.0000 0.0000 0.0000 62.9097 11.9169 57.6202 -116.8887 57.0836 -83.0583 0.0000 -0.0000 -7.5659 31.9469 -44.5936 -23.6438 7.1250 -0.0000 -0.0000 77.8812 -58.3470 -39.1333
-0.5943 18.7719 7.0006 -3.6334 5.3307 -0.2103 0.0000 0.0000 0.0000 -11.3130 -7.5607 -1.0040 1.7694 8.3683 23.8384 1.1120 1.1988 -20.3927 8.7638 -16.6533 -55.2697 0.0000 0.0000 0.0000 17.2284 -7.2937 11.9546 0.0000 0.0000 -0.0000 -0.7578 -7.2109 -20.6031 -0.2823 3.4170 -9.4421 -2.7646 -2.2859 11.7158 -0.1515 -3.5379 -4.2457 2.1325 -1.4994 -11.0398 -3.0698 -4.9947 -37.2741 6.8823 -6.4581 9.7219 1.8588 -2.2385 9.0924 -0.0000 0.0000 0.0000 -73.0822 -47.1982 50.6285 63.4803 -57.1682 -37.2516 -0.0000 -0.0000 0.6133 5.9667 -9.0861 -0.9456 -7.1250 0.0000 -0.0000 -14.9632 20.9631 8.9233 -0.0000 0.0000 0.0000 62.9324 12.6126 56.1766 -119.4370 56.4581 -85.1901 0.0000 -0.0000 -7.9873 31.5693 -44.7322 -23.3864 7.1250 -0.0000 -0.0000 77.8122 -58.5016 -39.3440
-0.6009 18.7992 6.9370 -3.5641 5.6417 -0.0059 0.0000 0.0000 0.0000 -11.2730 -7.7980 -1.6666 1.7973 8.4304 24.0292 1.0260 1.3134 -19.6542 8.7459 -16.6414 -55.2071 0.0000 0.0000 0.0000 17.2359 -7.4394 11.4505 0.0000 -0.0000 0.0000 -0.6962 -7.6370 -20.3406 -0.2759 3.3784 -9.3341 -2.4812 -2.4700 13.1914 -0.3234 -3.8007 -4.0952 1.9195 -1.6306 -11.7688 -2.7373 -4.7595 -36.5530 6.6135 -6.2526 9.4321 1.7495 -2.1877 8.8587 0.0000 -0.0000 0.0000 -73.1754 -44.9294 51.7437 62.1248 -56.8500 -36.1146 -0.0000 -0.0000 0.6093 4.3440 -8.0468 -0.6092 -7.1250 0.0000 -0.0000 -16.2048 22.0000 9.3246 0.0000 -0.0000 0.0000 62.3164 13.9762 54.7063 -122.0858 55.7280 -87.3886 0.0000 -0.0000 -8.5242 30.4519 -45.2048 -22.6460 7.1250 -0.0000 -0.0000 77.7040 -58.9870 -40.0959
-0.6045 18.8274 6.8630 -3.5316 5.8916 0.1833 0.0000 0.0000 0.0000 -11.2038 -7.9918 -2.3727 1.8331 8.5095 24.2727 0.9526 1.3426 -18.9706 8.7969 -16.6752 -55.3850 0.0000 0.0000 0.0000 17.2728 -7.5126 10.9304 0.0000 -0.0000 0.0000 -0.6236 -8.1374 -20.0353 -0.2825 3.4185 -9.4460 -2.1272 -2.6409 14.7560 -0.4460 -4.0188 -3.8729 1.7201 -1.7442 -12.4768 -2.4529 -4.5091 -35.8326 6.3374 -6.0009 9.1562 1.6532 -2.1168 8.6307 -0.0000 0.0000 0.0000 -73.3388 -42.6358 52.7980 60.8793 -56.5397 -35.0737 -0.0000 -0.0000 0.7856 2.3349 -6.8552 -0.2789 -7.1250 0.0000 -0.0000 -17.7612 23.1605 9.8087 -0.0000 0.0000 0.0000 62.2837 15.4894 52.8535 -123.2486 55.3802 -88.3475 0.0000 -0.0000 -8.3528 28.3283 -45.1304 -20.9096 7.1250 -0.0000 -0.0000 76.0738 -59.5222 -39.5060
-0.6070 18.8564 6.7806 -3.4691 6.0469 0.4191 0.0000 0.0000 0.0000 -11.1635 -8.1648 -3.1906 1.8814 8.6145 24.5967 0.8794 1.3388 -18.2482 8.8338 -16.6995 -55.5134 0.0000 0.0000 0.0000 17.2717 -7.4661 10.3560 0.0000 0.0000 -0.0000 -0.5576 -8.6041 -19.7715 -0.2696 3.3404 -9.2278 -1.8170 -2.7883 16.3208 -0.5422 -4.1977 -3.5839 1.5677 -1.8366 -13.1056 -2.2645 -4.2333 -35.1767 6.1616 -5.6955 8.9930 1.6158 -2.0072 8.4583 0.0000 0.0000 0.0000 -73.3853 -40.3923 53.8166 59.8526 -56.2705 -34.2185 -0.0000 -0.0000 0.6403 0.2316 -5.2970 -0.0214 -7.1250 0.0000 -0.0000 -19.4687 24.6329 10.1544 0.0000 0.0000 0.0000 62.2313 17.2124 50.9642 -123.5577 55.2849 -88.6017 0.0000 -0.0000 -7.7825 25.2250 -44.8041 -18.3649 7.1250 -0.0000 -0.0000 73.3209 -60.2159 -38.2021
-0.6100 18.8853 6.6906 -3.3371 6.1682 0.7404 0.0000 0.0000 0.0000 -11.1915 -8.4585 -4.0999 1.9365 8.7326 24.9623 0.8058 1.3673 -17.5048 8.8099 -16.6838 -55.4304 0.0000 0.0000 0.0000 17.2091 -7.3542 9.6875 0.0000 -0.0000 0.0000 -0.5032 -9.0103 -19.5804 -0.2415 3.1622 -8.7307 -1.5679 -2.8726 17.8676 -0.6592 -4.2977 -3.2919 1.4069 -1.8885 -13.7179 -1.9605 -3.9358 -34.2330 5.8780 -5.3896 8.7722 1.5228 -1.9112 8.2201 -0.0000 0.0000 0.0000 -73.4955 -38.1768 55.0346 58.8896 -56.0067 -33.4188 -0.0000 0.0000 -0.0081 -1.4705 -3.6554 0.0938 -7.1250 0.0000 -0.0000 -20.9507 26.1497 10.2318 -0.0000 0.0000 0.0000 62.0310 19.4231 49.0392 -123.3678 55.3436 -88.4456 0.0000 -0.0000 -7.0210 21.7716 -44.7079 -15.6940 7.1250 -0.0000 -0.0000 70.5931 -61.1125 -37.2941
-0.6157 18.9126 6.5952 -3.2298 6.3033 1.1358 0.0000 0.0000 0.0000 -11.1425 -8.7091 -5.1509 1.9959 8.8575 25.3506 0.7293 1.3527 -16.6770 8.8090 -16.6832 -55.4272 0.0000 0.0000 0.0000 17.1959 -7.2317 8.9315 0.0000 0.0000 -0.0000 -0.4629 -9.3395 -19.4694 -0.2051 2.9157 -8.0441 -1.3510 -2.9253 19.3927 -0.7383 -4.3503 -3.0295 1.2923 -1.9135 -14.3434 -1.4976 -3.6281 -32.8467 5.4075 -5.0943 8.3963 1.3291 -1.8438 7.8688 0.0000 0.0000 0.0000 -73.5991 -35.8854 56.3455 58.1238 -55.7889 -32.7847 -0.0000 0.0000 -1.1093 -2.7737 -1.9756 0.0957 -7.1250 0.0000 -0.0000 -22.2008 27.6805 10.0632 0.0000 0.0000 0.0000 61.4945 22.2637 47.2057 -122.9801 55.4621 -88.1264 0.0000 -0.0000 -6.7744 17.5494 -45.5332 -12.7181 7.1250 -0.0000 -0.0000 68.6963 -62.6829 -38.0762
-0.6320 18.9367 6.5040 -3.2087 6.4905 1.5746 0.0000 0.0000 0.0000 -10.8823 -8.6241 -6.4092 2.0628 8.9957 25.7818 0.6532 1.0016 -15.6621 8.8187 -16.6896 -55.4609 0.0000 0.0000 0.0000 17.3191 -7.1627 8.1536 0.0000 -0.0000 0.0000 -0.4341 -9.5668 -19.3856 -0.1736 2.6841 -7.4004 -1.2921 -2.9711 20.7773 -0.6603 -4.3991 -2.6798 1.4317 -1.9201 -14.7496 -1.0851 -3.3023 -31.6233 4.9516 -4.7484 8.0910 1.1676 -1.7453 7.5563 -0.0000 -0.0000 0.0000 -73.6782 -33.7917 57.4954 57.5100 -55.6091 -32.2777 -0.0000 0.0000 -2.3154 -4.3798 -0.4562 0.0349 -7.1250 0.0000 -0.0000 -23.6798 29.0266 10.0156 -0.0000 -0.0000 0.0000 61.6362 23.7694 45.8818 -122.2559 55.6782 -87.5291 0.0000 -0.0000 -4.5650 11.0307 -44.5470 -7.7867 7.1250 -0.0000 -0.0000 61.9153 -64.0641 -34.5917
-0.6532 18.9584 6.4162 -3.2268 6.6945 2.1020 0.0000 0.0000 0.0000 -10.5297 -8.4483 -7.8386 2.1416 9.1549 26.2811 0.5863 0.5233 -14.6644 8.8020 -16.6786 -55.4028 0.0000 0.0000 0.0000 17.5156 -7.0867 7.2979 0.0000 0.0000 -0.0000 -0.4091 -9.7465 -19.2976 -0.1653 2.6196 -7.2213 -1.2849 -2.9364 21.9528 -0.4693 -4.3260 -2.1988 1.6721 -1.8686 -14.8558 -0.9869 -3.0571 -30.6897 4.6312 -4.4063 7.8937 1.0987 -1.6344 7.3349 -0.0000 -0.0000 0.0000 -73.7959 -32.3261 58.7849 56.8650 -55.4150 -31.7460 -0.0000 0.0000 -3.3217 -6.8298 0.7870 -0.0943 -7.1250 0.0000 -0.0000 -25.7386 30.0511 10.3585 -0.0000 -0.0000 0.0000 62.0139 25.9537 44.2645 -120.7563 56.1050 -86.2874 0.0000 -0.0000 -2.5535 5.7612 -43.5801 -3.9786 7.1250 -0.0000 -0.0000 55.8664 -65.0595 -31.3499
-0.6629 18.9781 6.3170 -3.2429 6.7296 2.8644 0.0000 0.0000 0.0000 -10.2253 -8.4390 -9.5346 2.2357 9.3407 26.8669 0.5346 0.2981 -13.9253 8.7922 -16.6721 -55.3687 0.0000 0.0000 0.0000 17.6876 -6.7358 6.1707 0.0000 0.0000 -0.0000 -0.3786 -9.9829 -19.2084 -0.1694 2.6514 -7.3096 -1.0843 -2.7680 22.9690 -0.2717 -4.0171 -1.7490 1.7194 -1.7288 -14.9195 -1.0315 -2.9183 -29.6181 4.0899 -4.1193 7.7800 0.9693 -1.5754 7.1204 0.0000 -0.0000 0.0000 -73.9401 -31.3488 60.4938 56.5730 -55.3254 -31.5057 -0.0000 0.0000 -4.5828 -9.7680 2.1198 -0.3648 -7.1250 0.0000 -0.0000 -28.1906 31.0855 10.7876 0.0000 -0.0000 0.0000 62.3660 28.3772 42.4661 -118.1235 56.7896 -84.0931 0.0000 0.0000 0.1830 2.8537 -42.7118 -1.9366 7.1250 -0.0000 -0.0000 51.8472 -65.3827 -28.8836
-0.6654 18.9937 6.2061 -3.2150 6.5878 3.8182 0.0000 0.0000 0.0000 -9.9891 -8.4176 -11.5324 2.3529 9.5654 27.5805 0.4901 0.1540 -13.2837 8.7710 -16.6581 -55.2948 0.0000 0.0000 0.0000 17.7850 -6.1268 4.8381 0.0000 0.0000 -0.0000 -0.3505 -10.2370 -19.1690 -0.1607 2.5828 -7.1193 -0.9344 -2.5537 23.9402 -0.0874 -3.6569 -1.1904 1.7499 -1.5674 -14.8196 -0.8592 -2.7120 -29.0276 3.4460 -3.8124 7.7793 0.7719 -1.4985 7.0071 0.0000 -0.0000 0.0000 -73.9046 -31.0021 61.6249 57.3147 -55.5509 -32.1166 -0.0000 0.0000 -4.7001 -15.4230 4.9530 -1.3645 -7.1250 0.0000 -0.0000 -33.0327 33.1580 11.2780 0.0000 -0.0000 0.0000 62.9126 31.0550 41.2759 -114.5480 57.5959 -81.0876 0.0000 0.0000 1.2056 -3.4538 -42.5086 2.3353 7.1250 -0.0000 -0.0000 45.6933 -67.1405 -26.5288
-0.6613 19.0063 6.0839 -3.0933 6.1654 4.9336 0.0000 0.0000 0.0000 -9.8946 -8.2850 -13.7779 2.4873 9.8149 28.3792 0.4490 0.1515 -12.7156 8.7669 -16.6554 -55.2805 0.0000 0.0000 0.0000 17.7253 -5.1762 3.3544 0.0000 0.0000 -0.0000 -0.3171 -10.5445 -19.1331 -0.1493 2.4901 -6.8623 -0.7858 -2.1875 24.7149 0.0321 -3.1046 -0.6385 1.6218 -1.3267 -14.6193 -0.9667 -2.6311 -27.9816 3.1402 -3.6127 7.3725 0.7218 -1.4557 6.7100 -0.0000 -0.0000 0.0000 -73.9602 -31.0534 62.7165 58.5571 -55.9130 -33.1433 -0.0000 0.0000 -5.3261 -21.2354 6.9088 -2.6762 -7.1250 0.0000 -0.0000 -37.6250 34.2477 12.3191 -0.0000 -0.0000 0.0000 62.8510 33.8507 40.2117 -109.7038 58.4810 -76.9770 0.0000 0.0000 3.3953 -10.8144 -41.0930 7.1563 7.1250 -0.0000 -0.0000 35.9058 -68.3905 -21.1668
